<mxfile host="app.diagrams.net" agent="Mozilla/5.0 (Windows NT 10.0; Win64; x64) AppleWebKit/537.36 (KHTML, like Gecko) Chrome/137.0.0.0 Safari/537.36" version="27.1.6">
  <diagram name="Page-1" id="YWKx9EGiREDOp6wAJVLQ">
    <mxGraphModel dx="1426" dy="743" grid="1" gridSize="10" guides="1" tooltips="1" connect="1" arrows="1" fold="1" page="1" pageScale="1" pageWidth="827" pageHeight="1169" math="0" shadow="0">
      <root>
        <mxCell id="0" />
        <mxCell id="1" parent="0" />
        <mxCell id="2YxjCR3SoYK0EIeVXOd0-3" style="edgeStyle=orthogonalEdgeStyle;rounded=0;orthogonalLoop=1;jettySize=auto;html=1;exitX=1;exitY=0.5;exitDx=0;exitDy=0;strokeColor=#FF0000;endArrow=none;startFill=0;" parent="1" source="2YxjCR3SoYK0EIeVXOd0-1" edge="1">
          <mxGeometry relative="1" as="geometry">
            <mxPoint x="430" y="239.80952380952374" as="targetPoint" />
          </mxGeometry>
        </mxCell>
        <mxCell id="2YxjCR3SoYK0EIeVXOd0-1" value="&lt;span style=&quot;font-size: 8px;&quot;&gt;Disjoncteur&lt;/span&gt;&lt;div&gt;&lt;span style=&quot;font-size: 8px;&quot;&gt;d&#39;abonné&lt;/span&gt;&lt;/div&gt;" style="rounded=0;whiteSpace=wrap;html=1;" parent="1" vertex="1">
          <mxGeometry x="310" y="220" width="80" height="40" as="geometry" />
        </mxCell>
        <mxCell id="2YxjCR3SoYK0EIeVXOd0-4" value="&lt;font style=&quot;font-size: 8px;&quot;&gt;Tableau &lt;br&gt;divisionnaire &lt;br&gt;TD1&lt;/font&gt;" style="whiteSpace=wrap;html=1;aspect=fixed;" parent="1" vertex="1">
          <mxGeometry x="430" y="220" width="90" height="90" as="geometry" />
        </mxCell>
        <mxCell id="2YxjCR3SoYK0EIeVXOd0-5" value="&lt;font style=&quot;font-size: 8px;&quot;&gt;Tableau &lt;br&gt;divisionnaire &lt;br&gt;TD2&lt;/font&gt;" style="whiteSpace=wrap;html=1;aspect=fixed;" parent="1" vertex="1">
          <mxGeometry x="600" y="220" width="90" height="90" as="geometry" />
        </mxCell>
        <mxCell id="2YxjCR3SoYK0EIeVXOd0-7" value="Rangée 1" style="rounded=0;whiteSpace=wrap;html=1;" parent="1" vertex="1">
          <mxGeometry x="430" y="330" width="90" height="30" as="geometry" />
        </mxCell>
        <mxCell id="2YxjCR3SoYK0EIeVXOd0-8" value="Rangée 2" style="rounded=0;whiteSpace=wrap;html=1;" parent="1" vertex="1">
          <mxGeometry x="430" y="380" width="90" height="30" as="geometry" />
        </mxCell>
        <mxCell id="2YxjCR3SoYK0EIeVXOd0-9" value="Rangée 3" style="rounded=0;whiteSpace=wrap;html=1;" parent="1" vertex="1">
          <mxGeometry x="430" y="430" width="90" height="30" as="geometry" />
        </mxCell>
        <mxCell id="2YxjCR3SoYK0EIeVXOd0-10" value="Rangée 4" style="rounded=0;whiteSpace=wrap;html=1;" parent="1" vertex="1">
          <mxGeometry x="430" y="480" width="90" height="30" as="geometry" />
        </mxCell>
        <mxCell id="2YxjCR3SoYK0EIeVXOd0-15" style="edgeStyle=none;rounded=0;orthogonalLoop=1;jettySize=auto;html=1;exitX=0.75;exitY=1;exitDx=0;exitDy=0;entryX=0.75;entryY=0;entryDx=0;entryDy=0;endArrow=none;startFill=0;fillColor=#e51400;strokeColor=#B20000;" parent="1" source="2YxjCR3SoYK0EIeVXOd0-13" target="2YxjCR3SoYK0EIeVXOd0-1" edge="1">
          <mxGeometry relative="1" as="geometry" />
        </mxCell>
        <mxCell id="2YxjCR3SoYK0EIeVXOd0-16" style="edgeStyle=none;rounded=0;orthogonalLoop=1;jettySize=auto;html=1;exitX=0.25;exitY=1;exitDx=0;exitDy=0;entryX=0.25;entryY=0;entryDx=0;entryDy=0;" parent="1" source="2YxjCR3SoYK0EIeVXOd0-13" target="2YxjCR3SoYK0EIeVXOd0-1" edge="1">
          <mxGeometry relative="1" as="geometry" />
        </mxCell>
        <mxCell id="2YxjCR3SoYK0EIeVXOd0-13" value="&lt;div&gt;&lt;span style=&quot;font-size: 8px;&quot;&gt;Linky&lt;/span&gt;&lt;/div&gt;&lt;span style=&quot;font-size: 8px;&quot;&gt;Compteur d&#39;abonné&lt;br&gt;&lt;/span&gt;" style="rounded=0;whiteSpace=wrap;html=1;" parent="1" vertex="1">
          <mxGeometry x="310" y="160" width="80" height="40" as="geometry" />
        </mxCell>
        <mxCell id="hjlQ4DmXE-iVAmsP31Rv-1" style="edgeStyle=none;rounded=0;orthogonalLoop=1;jettySize=auto;html=1;exitX=1;exitY=0.75;exitDx=0;exitDy=0;entryX=-0.005;entryY=0.342;entryDx=0;entryDy=0;entryPerimeter=0;strokeColor=#0000FF;endArrow=none;startFill=0;" edge="1" parent="1" source="2YxjCR3SoYK0EIeVXOd0-1" target="2YxjCR3SoYK0EIeVXOd0-4">
          <mxGeometry relative="1" as="geometry" />
        </mxCell>
        <mxCell id="hjlQ4DmXE-iVAmsP31Rv-2" value="" style="endArrow=none;html=1;rounded=0;strokeColor=#FFFF00;" edge="1" parent="1" source="hjlQ4DmXE-iVAmsP31Rv-16">
          <mxGeometry width="50" height="50" relative="1" as="geometry">
            <mxPoint x="390" y="320" as="sourcePoint" />
            <mxPoint x="430" y="270" as="targetPoint" />
            <Array as="points">
              <mxPoint x="390" y="270" />
            </Array>
          </mxGeometry>
        </mxCell>
        <mxCell id="hjlQ4DmXE-iVAmsP31Rv-3" value="" style="endArrow=none;html=1;rounded=0;entryX=0.006;entryY=0.22;entryDx=0;entryDy=0;entryPerimeter=0;strokeColor=#FF3333;" edge="1" parent="1" target="2YxjCR3SoYK0EIeVXOd0-5">
          <mxGeometry width="50" height="50" relative="1" as="geometry">
            <mxPoint x="520" y="240" as="sourcePoint" />
            <mxPoint x="570" y="190" as="targetPoint" />
          </mxGeometry>
        </mxCell>
        <mxCell id="hjlQ4DmXE-iVAmsP31Rv-4" value="" style="endArrow=none;html=1;rounded=0;entryX=0.006;entryY=0.22;entryDx=0;entryDy=0;entryPerimeter=0;strokeColor=#0000FF;" edge="1" parent="1">
          <mxGeometry width="50" height="50" relative="1" as="geometry">
            <mxPoint x="520" y="250" as="sourcePoint" />
            <mxPoint x="601" y="250" as="targetPoint" />
          </mxGeometry>
        </mxCell>
        <mxCell id="hjlQ4DmXE-iVAmsP31Rv-5" value="" style="endArrow=none;html=1;rounded=0;entryX=0.006;entryY=0.22;entryDx=0;entryDy=0;entryPerimeter=0;strokeColor=#FFFF33;" edge="1" parent="1">
          <mxGeometry width="50" height="50" relative="1" as="geometry">
            <mxPoint x="520" y="260" as="sourcePoint" />
            <mxPoint x="601" y="260" as="targetPoint" />
          </mxGeometry>
        </mxCell>
        <mxCell id="hjlQ4DmXE-iVAmsP31Rv-6" value="" style="verticalLabelPosition=bottom;dashed=0;shadow=0;html=1;align=center;verticalAlign=top;shape=mxgraph.cabinets.cb_4p;" vertex="1" parent="1">
          <mxGeometry x="350" y="330" width="36" height="50" as="geometry" />
        </mxCell>
        <mxCell id="hjlQ4DmXE-iVAmsP31Rv-7" value="" style="verticalLabelPosition=bottom;dashed=0;shadow=0;html=1;align=center;verticalAlign=top;shape=mxgraph.cabinets.surge_protection_1p;" vertex="1" parent="1">
          <mxGeometry x="300" y="330" width="9" height="50" as="geometry" />
        </mxCell>
        <mxCell id="hjlQ4DmXE-iVAmsP31Rv-11" value="" style="verticalLabelPosition=bottom;dashed=0;shadow=0;html=1;align=center;verticalAlign=top;shape=mxgraph.cabinets.cb_2p;" vertex="1" parent="1">
          <mxGeometry x="320" y="330" width="18" height="50" as="geometry" />
        </mxCell>
        <mxCell id="hjlQ4DmXE-iVAmsP31Rv-12" value="" style="verticalLabelPosition=bottom;dashed=0;shadow=0;html=1;align=center;verticalAlign=top;shape=mxgraph.cabinets.surge_protection_3p;" vertex="1" parent="1">
          <mxGeometry x="260" y="410" width="27" height="50" as="geometry" />
        </mxCell>
        <mxCell id="hjlQ4DmXE-iVAmsP31Rv-14" value="" style="pointerEvents=1;verticalLabelPosition=bottom;shadow=0;dashed=0;align=center;html=1;verticalAlign=top;shape=mxgraph.electrical.miscellaneous.light_bulb;" vertex="1" parent="1">
          <mxGeometry x="60" y="535" width="60" height="50" as="geometry" />
        </mxCell>
        <mxCell id="hjlQ4DmXE-iVAmsP31Rv-15" value="" style="endArrow=none;html=1;rounded=0;strokeColor=#FFFF00;" edge="1" parent="1" target="hjlQ4DmXE-iVAmsP31Rv-16">
          <mxGeometry width="50" height="50" relative="1" as="geometry">
            <mxPoint x="390" y="320" as="sourcePoint" />
            <mxPoint x="430" y="270" as="targetPoint" />
            <Array as="points" />
          </mxGeometry>
        </mxCell>
        <mxCell id="hjlQ4DmXE-iVAmsP31Rv-16" value="" style="pointerEvents=1;verticalLabelPosition=bottom;shadow=0;dashed=0;align=center;html=1;verticalAlign=top;shape=mxgraph.electrical.signal_sources.protective_earth;" vertex="1" parent="1">
          <mxGeometry x="373.5" y="300" width="25" height="20" as="geometry" />
        </mxCell>
      </root>
    </mxGraphModel>
  </diagram>
</mxfile>
